<mxfile host="app.diagrams.net" modified="2022-10-21T23:55:53.749Z" agent="5.0 (Windows NT 10.0; Win64; x64) AppleWebKit/537.36 (KHTML, like Gecko) Chrome/105.0.0.0 Safari/537.36 OPR/91.0.4516.95" etag="ul_y3ypw_EIMPIITeuGq" version="20.5.0" type="github">
  <diagram id="6gc6r74fIt_xcLLN5VvN" name="Page-1">
    <mxGraphModel dx="1381" dy="764" grid="1" gridSize="10" guides="1" tooltips="1" connect="1" arrows="1" fold="1" page="1" pageScale="1" pageWidth="850" pageHeight="1100" math="0" shadow="0">
      <root>
        <mxCell id="0" />
        <mxCell id="1" parent="0" />
        <mxCell id="BAws4BwSg9bQv12DzhEy-1" value="" style="shape=image;html=1;verticalAlign=top;verticalLabelPosition=bottom;labelBackgroundColor=#ffffff;imageAspect=0;aspect=fixed;image=https://cdn4.iconfinder.com/data/icons/office-time/512/10-128.png" parent="1" vertex="1">
          <mxGeometry x="261" y="110" width="328" height="328" as="geometry" />
        </mxCell>
        <mxCell id="BAws4BwSg9bQv12DzhEy-2" value="" style="dashed=0;outlineConnect=0;html=1;align=center;labelPosition=center;verticalLabelPosition=bottom;verticalAlign=top;shape=mxgraph.webicons.java;gradientColor=#DFDEDE" parent="1" vertex="1">
          <mxGeometry x="350" y="290" width="122.4" height="70" as="geometry" />
        </mxCell>
        <mxCell id="BAws4BwSg9bQv12DzhEy-3" value="" style="shape=image;html=1;verticalAlign=top;verticalLabelPosition=bottom;labelBackgroundColor=#ffffff;imageAspect=0;aspect=fixed;image=https://cdn1.iconfinder.com/data/icons/bootstrap-vol-3/16/filetype-java-128.png" parent="1" vertex="1">
          <mxGeometry x="380" y="293.8" width="276.2" height="276.2" as="geometry" />
        </mxCell>
      </root>
    </mxGraphModel>
  </diagram>
</mxfile>
